HIERARCHY
ROOT hip
{
  OFFSET 0 0 0
  CHANNELS 6 Xposition Yposition Zposition Zrotation Yrotation Xrotation
  JOINT abdomen
  {
    OFFSET 0 20.6881 -0.73152
    CHANNELS 3 Zrotation Xrotation Yrotation
    JOINT chest
    {
      OFFSET 0 11.7043 -0.48768
      CHANNELS 3 Zrotation Xrotation Yrotation
      JOINT neck
      {
        OFFSET 0 22.1894 -2.19456
        CHANNELS 3 Zrotation Xrotation Yrotation
        JOINT head
        {
          OFFSET -0.24384 7.07133 1.2192
          CHANNELS 3 Zrotation Xrotation Yrotation
          JOINT leftEye
          {
            OFFSET 4.14528 8.04674 8.04672
            CHANNELS 3 Zrotation Xrotation Yrotation
            End Site
            {
              OFFSET 1 0 0
            }
          }
          JOINT rightEye
          {
            OFFSET -3.6576 8.04674 8.04672
            CHANNELS 3 Zrotation Xrotation Yrotation
            End Site
            {
              OFFSET 1 0 0
            }
          }
        }
      }
      JOINT rCollar
      {
        OFFSET -2.68224 19.2634 -4.8768
        CHANNELS 3 Zrotation Xrotation Yrotation
        JOINT rShldr
        {
          OFFSET -8.77824 -1.95073 1.46304
          CHANNELS 3 Zrotation Xrotation Yrotation
          JOINT rForeArm
          {
            OFFSET -28.1742 -1.7115 0.48768
            CHANNELS 3 Zrotation Xrotation Yrotation
            JOINT rHand
            {
              OFFSET -22.5879 0.773209 7.07136
              CHANNELS 3 Zrotation Xrotation Yrotation
              JOINT rThumb1
              {
                OFFSET -1.2192 -0.487915 3.41376
                CHANNELS 3 Zrotation Xrotation Yrotation
                JOINT rThumb2
                {
                  OFFSET -3.37035 -0.52449 3.41376
                  CHANNELS 3 Zrotation Xrotation Yrotation
                  End Site
                  {
                    OFFSET -1.78271 -1.18214 1.43049
                  }
                }
              }
              JOINT rIndex1
              {
                OFFSET -7.75947 0.938293 5.60832
                CHANNELS 3 Zrotation Xrotation Yrotation
                JOINT rIndex2
                {
                  OFFSET -2.54057 -0.884171 1.56538
                  CHANNELS 3 Zrotation Xrotation Yrotation
                  End Site
                  {
                    OFFSET -1.62519 -0.234802 1.16502
                  }
                }
              }
              JOINT rMid1
              {
                OFFSET -8.24714 1.18213 3.41376
                CHANNELS 3 Zrotation Xrotation Yrotation
                JOINT rMid2
                {
                  OFFSET -3.10165 -0.590103 1.0647
                  CHANNELS 3 Zrotation Xrotation Yrotation
                  End Site
                  {
                    OFFSET -2.48547 -0.328903 0.83742
                  }
                }
              }
              JOINT rRing1
              {
                OFFSET -8.82822 0.546677 1.51678
                CHANNELS 3 Zrotation Xrotation Yrotation
                JOINT rRing2
                {
                  OFFSET -2.60934 -0.819778 -0.0198488
                  CHANNELS 3 Zrotation Xrotation Yrotation
                  End Site
                  {
                    OFFSET -2.33842 -0.294052 0.168128
                  }
                }
              }
              JOINT rPinky1
              {
                OFFSET -8.27202 -0.0477905 -0.4584
                CHANNELS 3 Zrotation Xrotation Yrotation
                JOINT rPinky2
                {
                  OFFSET -1.82734 -0.647385 -0.700984
                  CHANNELS 3 Zrotation Xrotation Yrotation
                  End Site
                  {
                    OFFSET -1.69225 -0.51767 -0.607171
                  }
                }
              }
            }
          }
        }
      }
      JOINT lCollar
      {
        OFFSET 2.68224 19.2634 -4.8768
        CHANNELS 3 Zrotation Xrotation Yrotation
        JOINT lShldr
        {
          OFFSET 8.77824 -1.95073 1.46304
          CHANNELS 3 Zrotation Xrotation Yrotation
          JOINT lForeArm
          {
            OFFSET 28.1742 -1.7115 0.48768
            CHANNELS 3 Zrotation Xrotation Yrotation
            JOINT lHand
            {
              OFFSET 22.5879 0.773209 7.07136
              CHANNELS 3 Zrotation Xrotation Yrotation
              JOINT lThumb1
              {
                OFFSET 1.2192 -0.487915 3.41376
                CHANNELS 3 Zrotation Xrotation Yrotation
                JOINT lThumb2
                {
                  OFFSET 3.37035 -0.52449 3.41376
                  CHANNELS 3 Zrotation Xrotation Yrotation
                  End Site
                  {
                    OFFSET 1.78271 -1.18214 1.43049
                  }
                }
              }
              JOINT lIndex1
              {
                OFFSET 7.75947 0.938293 5.60832
                CHANNELS 3 Zrotation Xrotation Yrotation
                JOINT lIndex2
                {
                  OFFSET 2.54057 -0.884171 1.56538
                  CHANNELS 3 Zrotation Xrotation Yrotation
                  End Site
                  {
                    OFFSET 1.62519 -0.234802 1.16502
                  }
                }
              }
              JOINT lMid1
              {
                OFFSET 8.24714 1.18213 3.41376
                CHANNELS 3 Zrotation Xrotation Yrotation
                JOINT lMid2
                {
                  OFFSET 3.10165 -0.590103 1.0647
                  CHANNELS 3 Zrotation Xrotation Yrotation
                  End Site
                  {
                    OFFSET 2.48547 -0.328903 0.83742
                  }
                }
              }
              JOINT lRing1
              {
                OFFSET 8.82822 0.546677 1.51678
                CHANNELS 3 Zrotation Xrotation Yrotation
                JOINT lRing2
                {
                  OFFSET 2.60934 -0.819778 -0.0198488
                  CHANNELS 3 Zrotation Xrotation Yrotation
                  End Site
                  {
                    OFFSET 2.33842 -0.294052 0.168128
                  }
                }
              }
              JOINT lPinky1
              {
                OFFSET 8.27202 -0.0477905 -0.4584
                CHANNELS 3 Zrotation Xrotation Yrotation
                JOINT lPinky2
                {
                  OFFSET 1.82734 -0.647385 -0.700984
                  CHANNELS 3 Zrotation Xrotation Yrotation
                  End Site
                  {
                    OFFSET 1.69225 -0.51767 -0.607171
                  }
                }
              }
            }
          }
        }
      }
    }
  }
  JOINT rButtock
  {
    OFFSET -8.77824 4.35084 1.2192
    CHANNELS 3 Zrotation Xrotation Yrotation
    JOINT rThigh
    {
      OFFSET 0 -1.70687 -2.19456
      CHANNELS 3 Zrotation Xrotation Yrotation
      JOINT rShin
      {
        OFFSET 0 -36.8199 0.73152
        CHANNELS 3 Zrotation Xrotation Yrotation
        JOINT rFoot
        {
          OFFSET 0.73152 -45.1104 -5.12064
          CHANNELS 3 Zrotation Xrotation Yrotation
          End Site
          {
            OFFSET -1.1221 -3.69964 12.103
          }
        }
      }
    }
  }
  JOINT lButtock
  {
    OFFSET 8.77824 4.35084 1.2192
    CHANNELS 3 Zrotation Xrotation Yrotation
    JOINT lThigh
    {
      OFFSET 0 -1.70687 -2.19456
      CHANNELS 3 Zrotation Xrotation Yrotation
      JOINT lShin
      {
        OFFSET 0 -36.8199 0.73152
        CHANNELS 3 Zrotation Xrotation Yrotation
        JOINT lFoot
        {
          OFFSET -0.73152 -45.1104 -5.12064
          CHANNELS 3 Zrotation Xrotation Yrotation
          End Site
          {
            OFFSET 1.1221 -3.69964 12.103
          }
        }
      }
    }
  }
}
MOTION
Frames:	5
Frame Time:	0.03333
0.0 0.0 0.0 0.0 0.0 0.0 0.0 0.0 0.0 0.0 0.0 0.0 0.0 0.0 0.0 0.0 0.0 0.0 0.0 0.0 0.0 0.0 0.0 0.0 0.0 0.0 0.0 0.0 0.0 0.0 0.0 0.0 0.0 0.0 0.0 0.0 0.0 0.0 0.0 0.0 0.0 0.0 0.0 0.0 0.0 0.0 0.0 0.0 0.0 0.0 0.0 0.0 0.0 0.0 0.0 0.0 0.0 0.0 0.0 0.0 0.0 0.0 0.0 0.0 0.0 0.0 0.0 0.0 0.0 0.0 0.0 0.0 0.0 0.0 0.0 0.0 0.0 0.0 0.0 0.0 0.0 0.0 0.0 0.0 0.0 0.0 0.0 0.0 0.0 0.0 0.0 0.0 0.0 0.0 0.0 0.0 0.0 0.0 0.0 0.0 0.0 0.0 0.0 0.0 0.0 0.0 0.0 0.0 0.0 0.0 0.0 0.0 0.0 0.0 0.0 0.0 0.0 0.0 0.0 0.0 0.0 0.0 0.0 0.0 0.0 0.0 0.0 0.0 0.0 0.0 0.0 0.0
-1.8838000000000001 70.43 3.0792 -173.602354 -61.448879 -178.303855 2.331214 12.626059 143.894633 -5.333383 3.830126 -137.077436 -3.571071 30.700075 -137.057188 30.794865 35.177441 161.100457 0.001298 -0.0 -0.004305 0.001552 0.0 0.001331 -13.744267 42.431429 15.569535 -16.040653 1.880105 63.327319 -105.913355 -6.765417 33.837328 35.665584 -54.250302 25.959057 -80.965271 38.736426 44.498992 -42.315154 -1.171216 43.157458 -151.35412 -17.158168 121.133034 12.497247 -2.598272 -10.172377 -0.570519 1.648496 0.321604 -29.120249 52.071624 24.197077 -145.120368 0.184863 -179.187669 12.117435 44.703093 -3.859506 -143.939932 8.264995 -140.719488 -162.338041 55.876477 -146.678069 -0.07064 -0.427802 0.095126 101.915592 -7.079528 -101.73771 -42.713485 -18.843957 176.053021 157.342997 55.856492 -132.55098 171.705825 -9.388689 -89.947783 71.635528 2.53088 -21.796945 100.823473 37.733243 -85.162001 -104.645804 -67.25998 -55.000896 36.034896 51.72354 -29.831865 -2.994503 1.20678 -0.233662 0.014239 -1.323201 0.415567 -3.386033 44.819918 -8.836147 -12.985288 44.344665 -10.764014 160.215961 53.951004 149.456993 -0.000606 -0.000516 0.000779 -17.428666 -38.330963 57.242576 76.548449 2.447031 9.319467 138.67619 55.449708 135.70426 0.003756 6.5e-05 0.001878 52.72001 -49.613805 -155.638788 13.235378 -64.130305 -147.81331 80.140709 -8.389508 -36.028374
-3.8316999999999997 70.7599 4.5121 -174.08363 -63.821934 -178.821911 3.200954 16.191011 -0.0 0.198417 -10.72179 8.3043 13.749229 19.561243 90.993582 -32.90464 12.047445 -57.704771 -0.003201 0.0 -0.001821 0.002792 0.0 0.003436 1.990128 -14.052988 -2.880376 50.575829 12.289293 26.632903 -113.684868 -52.291708 94.192997 101.014971 -64.909642 89.454265 51.059316 -41.204008 12.857298 -141.530528 -5.769426 118.220043 -2.686617 4.226852 1.582674 -166.810677 -20.338328 109.629142 0.542422 -1.589693 -0.295346 -4.961214 21.319382 4.409661 -74.841182 72.9613 92.827864 5.110383 28.347544 -0.717477 11.403349 38.078577 9.69619 -148.457318 13.04651 -143.759182 158.464162 -30.011579 -166.913265 -96.974803 44.772094 82.991108 33.134244 -4.32358 -154.269169 -23.957406 -49.597444 -13.745097 121.364906 30.329591 -71.957659 114.760726 -7.233282 -63.319731 138.492614 4.895828 -114.864418 63.807578 56.643056 -45.562939 125.643322 49.838731 -115.272194 153.816279 19.930041 -138.461075 145.118085 0.185804 179.185922 66.960591 87.687974 -80.215341 112.782373 -40.023944 110.810842 -3.30454 0.073181 1.387749 0.002523 -0.001142 -0.0 -17.543674 -35.66784 -28.465651 -39.307544 71.360327 -50.984647 99.160963 40.096714 4.168703 -179.980293 75.749026 -0.013483 -144.623135 16.249873 -68.491017 -52.085689 29.667638 -6.748766 42.712631 80.530923 16.048505
-6.2805 71.0855 5.9938 -173.904321 -65.859145 179.913763 4.584094 12.192594 -112.947126 7.484212 0.935328 121.372607 13.73355 21.481771 105.399285 -31.473688 19.886014 -71.073337 -0.004993 0.0 -0.00286 -0.004341 -0.0 0.004022 4.26022 -46.008898 -8.910333 -37.326993 -72.797713 -88.704901 96.622227 -40.686614 -98.452389 -166.559368 51.091819 141.36792 -173.771261 -11.439694 89.89144 -142.063183 9.433781 72.800127 -155.91143 -25.62833 122.277699 -166.248366 -27.280075 118.992478 -125.645635 49.840911 115.275085 -163.107811 -4.792103 143.081598 -72.962969 -72.144645 -89.989409 11.418031 -44.159919 -11.770792 0.098842 0.25828 0.091313 36.615959 81.001871 -0.080958 3.767709 17.920979 -4.641375 -49.976659 -16.420737 -42.366555 175.640947 -18.210835 -20.793528 -174.489023 -15.216101 -143.485643 0.544059 0.536148 -0.086284 37.495972 26.073896 -33.803577 46.209451 39.652537 -36.318176 -6.7321 0.010377 2.549398 0.96936 2.779698 -0.552251 163.72047 -6.175752 -143.492767 0.020268 -1.724433 0.541397 154.254614 11.213732 -170.338196 46.799479 -48.625935 45.558848 -22.135045 60.525155 -8.425843 -179.998218 75.749419 -0.001219 159.519046 37.9106 -148.70505 -52.707261 -53.061183 130.612419 -14.641986 -13.739758 -38.537607 -179.991276 75.749938 -0.009001 -143.270575 19.227834 -180.0 -25.054098 -53.747373 24.706735 -18.086617 1.556637 138.729292
-8.6119 71.1784 7.9455 -171.312408 -68.662616 176.364156 0.457228 10.164893 147.289924 -3.675642 4.267575 -136.359364 -7.902394 18.308411 -63.485863 34.387052 -4.914347 93.285996 -0.000267 0.0 -0.001301 -0.000267 0.0 -0.001301 -9.651479 34.836182 11.199311 -118.618489 -13.713541 157.666578 3.208936 -6.926603 -151.523219 -170.728753 5.250308 141.50751 -178.927202 -16.45374 89.422975 148.393998 -48.823177 103.002374 112.657253 -76.284891 61.486957 97.931955 -67.172682 40.011581 -158.5222 -0.191887 142.145827 -155.849417 15.490767 139.526433 -71.539581 -72.141746 -88.495588 -150.978295 -0.371482 176.371499 -38.0173 -45.463054 -36.881507 -153.514058 36.111651 -147.700704 159.220728 -48.028544 -170.414933 34.692852 -38.942907 34.907502 0.381305 -3.506685 136.516257 -174.852068 -16.825336 -143.203197 -1.600919 -1.58624 0.22433 -24.568717 -42.633667 17.656497 4.707557 7.223738 -2.854926 -152.25665 -54.395808 -88.915181 36.034373 51.72342 -29.832497 7.190025 26.202568 -6.139214 0.000721 -0.018477 0.006026 148.212765 -76.780596 171.085728 138.442723 -6.230065 135.659684 147.795996 13.489303 142.177347 -179.981612 75.749711 -0.012581 155.272987 43.373734 17.186975 44.88157 61.740921 42.259265 36.086791 72.957958 -137.266078 0.00011 -0.001591 -0.000142 44.590542 -37.175278 98.17708 42.674951 8.984411 -84.967656 -60.717834 -27.737716 44.751807
